<mxfile host="app.diagrams.net" modified="2022-12-17T15:21:37.231Z" agent="5.0 (Windows NT 10.0; Win64; x64) AppleWebKit/537.36 (KHTML, like Gecko) Chrome/108.0.0.0 Safari/537.36" version="20.7.4" etag="p2e7Fw5RkfdPRyHZzJAc" type="github">
  <diagram id="GVZY7AuQiqxXfrJP_eS6" name="第 1 页">
    <mxGraphModel dx="1834" dy="-804" grid="1" gridSize="10" guides="1" tooltips="1" connect="1" arrows="1" fold="1" page="0" pageScale="1" pageWidth="827" pageHeight="1169" background="#ffffff" math="0" shadow="0">
      <root>
        <mxCell id="0" />
        <mxCell id="1" parent="0" />
        <mxCell id="WznCXAJTclXVe1r9-bJw-1" value="&lt;b&gt;&lt;font style=&quot;font-size: 20px&quot; color=&quot;#ffff66&quot;&gt;&lt;br&gt;&lt;/font&gt;&lt;/b&gt;" style="rounded=1;whiteSpace=wrap;html=1;strokeWidth=2;fillWeight=4;hachureGap=8;hachureAngle=45;fillColor=#b1ddf0;sketch=1;strokeColor=#10739e;fillStyle=solid;" vertex="1" parent="1">
          <mxGeometry x="-193" y="1775" width="612" height="64.5" as="geometry" />
        </mxCell>
        <mxCell id="WznCXAJTclXVe1r9-bJw-2" value="" style="shape=partialRectangle;whiteSpace=wrap;html=1;top=0;bottom=0;fillColor=none;shadow=0;sketch=1;" vertex="1" parent="1">
          <mxGeometry x="-107" y="1779" width="77" height="58" as="geometry" />
        </mxCell>
        <mxCell id="WznCXAJTclXVe1r9-bJw-3" value="" style="shape=partialRectangle;whiteSpace=wrap;html=1;top=0;bottom=0;fillColor=none;sketch=1;" vertex="1" parent="1">
          <mxGeometry x="44" y="1779" width="77" height="58" as="geometry" />
        </mxCell>
        <mxCell id="WznCXAJTclXVe1r9-bJw-4" value="" style="shape=partialRectangle;whiteSpace=wrap;html=1;top=0;bottom=0;fillColor=none;sketch=1;" vertex="1" parent="1">
          <mxGeometry x="192" y="1778" width="77" height="58" as="geometry" />
        </mxCell>
        <mxCell id="WznCXAJTclXVe1r9-bJw-5" value="" style="shape=partialRectangle;whiteSpace=wrap;html=1;top=0;bottom=0;fillColor=none;sketch=1;" vertex="1" parent="1">
          <mxGeometry x="340" y="1778" width="77" height="58" as="geometry" />
        </mxCell>
        <mxCell id="WznCXAJTclXVe1r9-bJw-6" value="&lt;font size=&quot;1&quot; color=&quot;#7ea6e0&quot;&gt;&lt;b style=&quot;font-size: 22px&quot;&gt;变量a&lt;/b&gt;&lt;/font&gt;" style="text;html=1;strokeColor=none;fillColor=none;align=center;verticalAlign=middle;whiteSpace=wrap;rounded=0;shadow=0;sketch=1;" vertex="1" parent="1">
          <mxGeometry x="-180" y="1793" width="60" height="30" as="geometry" />
        </mxCell>
        <mxCell id="WznCXAJTclXVe1r9-bJw-7" value="&lt;font size=&quot;1&quot; color=&quot;#ea6b66&quot;&gt;&lt;b style=&quot;font-size: 22px&quot;&gt;变量b&lt;/b&gt;&lt;/font&gt;" style="text;html=1;strokeColor=none;fillColor=none;align=center;verticalAlign=middle;whiteSpace=wrap;rounded=0;shadow=0;sketch=1;" vertex="1" parent="1">
          <mxGeometry x="129" y="1793" width="60" height="30" as="geometry" />
        </mxCell>
        <mxCell id="WznCXAJTclXVe1r9-bJw-8" value="&lt;b&gt;&lt;font style=&quot;font-size: 20px&quot; color=&quot;#ffff66&quot;&gt;&lt;br&gt;&lt;/font&gt;&lt;/b&gt;" style="rounded=1;whiteSpace=wrap;html=1;strokeWidth=2;fillWeight=4;hachureGap=8;hachureAngle=45;fillColor=#b1ddf0;sketch=1;strokeColor=#10739e;fillStyle=solid;" vertex="1" parent="1">
          <mxGeometry x="-193" y="1861" width="612" height="64.5" as="geometry" />
        </mxCell>
        <mxCell id="WznCXAJTclXVe1r9-bJw-9" value="" style="shape=partialRectangle;whiteSpace=wrap;html=1;top=0;bottom=0;fillColor=none;shadow=0;sketch=1;" vertex="1" parent="1">
          <mxGeometry x="-107" y="1865" width="77" height="58" as="geometry" />
        </mxCell>
        <mxCell id="WznCXAJTclXVe1r9-bJw-10" value="" style="shape=partialRectangle;whiteSpace=wrap;html=1;top=0;bottom=0;fillColor=none;sketch=1;" vertex="1" parent="1">
          <mxGeometry x="44" y="1865" width="77" height="58" as="geometry" />
        </mxCell>
        <mxCell id="WznCXAJTclXVe1r9-bJw-11" value="" style="shape=partialRectangle;whiteSpace=wrap;html=1;top=0;bottom=0;fillColor=none;sketch=1;" vertex="1" parent="1">
          <mxGeometry x="192" y="1864" width="77" height="58" as="geometry" />
        </mxCell>
        <mxCell id="WznCXAJTclXVe1r9-bJw-12" value="" style="shape=partialRectangle;whiteSpace=wrap;html=1;top=0;bottom=0;fillColor=none;sketch=1;" vertex="1" parent="1">
          <mxGeometry x="340" y="1864" width="77" height="58" as="geometry" />
        </mxCell>
        <mxCell id="WznCXAJTclXVe1r9-bJw-13" value="" style="edgeStyle=orthogonalEdgeStyle;orthogonalLoop=1;jettySize=auto;html=1;fontSize=22;fontColor=#7EA6E0;curved=1;strokeColor=#FF0080;" edge="1" parent="1" source="WznCXAJTclXVe1r9-bJw-15" target="WznCXAJTclXVe1r9-bJw-16">
          <mxGeometry relative="1" as="geometry" />
        </mxCell>
        <mxCell id="WznCXAJTclXVe1r9-bJw-14" value="&lt;b&gt;&lt;font style=&quot;font-size: 17px&quot;&gt;内存访问&lt;/font&gt;&lt;/b&gt;" style="edgeLabel;html=1;align=center;verticalAlign=middle;resizable=0;points=[];fontSize=18;fontColor=#4D4D4D;labelBackgroundColor=none;labelBorderColor=none;" vertex="1" connectable="0" parent="WznCXAJTclXVe1r9-bJw-13">
          <mxGeometry x="-0.5762" y="-3" relative="1" as="geometry">
            <mxPoint x="40" y="26" as="offset" />
          </mxGeometry>
        </mxCell>
        <mxCell id="WznCXAJTclXVe1r9-bJw-15" value="P1" style="whiteSpace=wrap;html=1;fontSize=20;strokeWidth=2;fillColor=#66B2FF;sketch=1;fillWeight=-1;hachureGap=8;fillStyle=solid;strokeColor=#0e8088;" vertex="1" parent="1">
          <mxGeometry x="-300" y="1680" width="58" height="58" as="geometry" />
        </mxCell>
        <mxCell id="WznCXAJTclXVe1r9-bJw-16" value="" style="shape=waypoint;sketch=1;size=6;pointerEvents=1;points=[];fillColor=#b0e3e6;resizable=0;rotatable=0;perimeter=centerPerimeter;snapToPoint=1;fontSize=20;strokeColor=#0e8088;strokeWidth=2;fillWeight=-1;hachureGap=8;fillStyle=solid;" vertex="1" parent="1">
          <mxGeometry x="-175" y="1753" width="40" height="40" as="geometry" />
        </mxCell>
        <mxCell id="WznCXAJTclXVe1r9-bJw-17" value="&lt;font size=&quot;1&quot; color=&quot;#ea6b66&quot;&gt;&lt;b style=&quot;font-size: 22px&quot;&gt;变量b&lt;/b&gt;&lt;/font&gt;" style="text;html=1;strokeColor=none;fillColor=none;align=center;verticalAlign=middle;whiteSpace=wrap;rounded=0;shadow=0;sketch=1;" vertex="1" parent="1">
          <mxGeometry x="127" y="1878" width="60" height="30" as="geometry" />
        </mxCell>
        <mxCell id="WznCXAJTclXVe1r9-bJw-18" value="&lt;font size=&quot;1&quot; color=&quot;#7ea6e0&quot;&gt;&lt;b style=&quot;font-size: 22px&quot;&gt;变量a&lt;/b&gt;&lt;/font&gt;" style="text;html=1;strokeColor=none;fillColor=none;align=center;verticalAlign=middle;whiteSpace=wrap;rounded=0;shadow=0;sketch=1;" vertex="1" parent="1">
          <mxGeometry x="-180" y="1879" width="60" height="30" as="geometry" />
        </mxCell>
        <mxCell id="WznCXAJTclXVe1r9-bJw-19" value="" style="rounded=1;whiteSpace=wrap;html=1;shadow=1;sketch=1;fontSize=22;glass=0;fillColor=none;strokeColor=#B20000;fontColor=#ffffff;" vertex="1" parent="1">
          <mxGeometry x="-221.5" y="1723" width="133" height="263" as="geometry" />
        </mxCell>
        <mxCell id="WznCXAJTclXVe1r9-bJw-20" value="&lt;font style=&quot;font-size: 17px&quot; color=&quot;#ff3333&quot;&gt;&lt;b&gt;时序冲突&lt;/b&gt;&lt;/font&gt;" style="text;html=1;strokeColor=none;fillColor=none;align=center;verticalAlign=middle;whiteSpace=wrap;rounded=0;shadow=1;glass=0;sketch=1;fontSize=22;fontColor=#7EA6E0;" vertex="1" parent="1">
          <mxGeometry x="-191.5" y="1944" width="73" height="26" as="geometry" />
        </mxCell>
        <mxCell id="WznCXAJTclXVe1r9-bJw-21" value="" style="rounded=1;whiteSpace=wrap;html=1;shadow=1;sketch=1;fontSize=22;glass=0;fillColor=none;strokeColor=#B20000;fontColor=#ffffff;" vertex="1" parent="1">
          <mxGeometry x="87" y="1726" width="133" height="263" as="geometry" />
        </mxCell>
        <mxCell id="WznCXAJTclXVe1r9-bJw-22" value="&lt;font style=&quot;font-size: 17px&quot; color=&quot;#ff3333&quot;&gt;&lt;b&gt;时序冲突&lt;/b&gt;&lt;/font&gt;" style="text;html=1;strokeColor=none;fillColor=none;align=center;verticalAlign=middle;whiteSpace=wrap;rounded=0;shadow=1;glass=0;sketch=1;fontSize=22;fontColor=#7EA6E0;" vertex="1" parent="1">
          <mxGeometry x="119" y="1944" width="73" height="26" as="geometry" />
        </mxCell>
        <mxCell id="WznCXAJTclXVe1r9-bJw-23" value="" style="edgeStyle=orthogonalEdgeStyle;curved=1;orthogonalLoop=1;jettySize=auto;html=1;fontSize=17;fontColor=#FF3333;strokeColor=#FF0080;entryX=1;entryY=0.75;entryDx=0;entryDy=0;" edge="1" parent="1" source="WznCXAJTclXVe1r9-bJw-24" target="WznCXAJTclXVe1r9-bJw-17">
          <mxGeometry relative="1" as="geometry" />
        </mxCell>
        <mxCell id="WznCXAJTclXVe1r9-bJw-24" value="P2" style="whiteSpace=wrap;html=1;fontSize=20;strokeWidth=2;fillColor=#FF9999;sketch=1;fillWeight=-1;hachureGap=8;fillStyle=solid;strokeColor=#0e8088;" vertex="1" parent="1">
          <mxGeometry x="349.5" y="1955" width="58" height="58" as="geometry" />
        </mxCell>
        <mxCell id="WznCXAJTclXVe1r9-bJw-25" value="&lt;font style=&quot;font-size: 19px&quot; color=&quot;#006600&quot;&gt;&lt;b&gt;t1&lt;/b&gt;&lt;/font&gt;" style="text;html=1;strokeColor=none;fillColor=none;align=center;verticalAlign=middle;whiteSpace=wrap;rounded=0;shadow=1;glass=0;sketch=1;fontSize=17;fontColor=#FF3333;strokeWidth=5;" vertex="1" parent="1">
          <mxGeometry x="406" y="1796" width="60" height="30" as="geometry" />
        </mxCell>
        <mxCell id="WznCXAJTclXVe1r9-bJw-26" value="&lt;font style=&quot;font-size: 19px&quot; color=&quot;#006600&quot;&gt;&lt;b&gt;t2&lt;/b&gt;&lt;/font&gt;" style="text;html=1;strokeColor=none;fillColor=none;align=center;verticalAlign=middle;whiteSpace=wrap;rounded=0;shadow=1;glass=0;sketch=1;fontSize=17;fontColor=#FF3333;" vertex="1" parent="1">
          <mxGeometry x="406" y="1875" width="60" height="30" as="geometry" />
        </mxCell>
        <mxCell id="WznCXAJTclXVe1r9-bJw-27" value="&lt;b&gt;&lt;font style=&quot;font-size: 20px&quot; color=&quot;#ffff66&quot;&gt;&lt;br&gt;&lt;/font&gt;&lt;/b&gt;" style="rounded=1;whiteSpace=wrap;html=1;strokeWidth=2;fillWeight=4;hachureGap=8;hachureAngle=45;fillColor=#b1ddf0;sketch=1;strokeColor=#10739e;fillStyle=solid;" vertex="1" parent="1">
          <mxGeometry x="656" y="1822" width="612" height="64.5" as="geometry" />
        </mxCell>
        <mxCell id="WznCXAJTclXVe1r9-bJw-28" value="" style="shape=partialRectangle;whiteSpace=wrap;html=1;top=0;bottom=0;fillColor=none;shadow=0;sketch=1;" vertex="1" parent="1">
          <mxGeometry x="742" y="1826" width="77" height="58" as="geometry" />
        </mxCell>
        <mxCell id="WznCXAJTclXVe1r9-bJw-29" value="" style="shape=partialRectangle;whiteSpace=wrap;html=1;top=0;bottom=0;fillColor=none;sketch=1;" vertex="1" parent="1">
          <mxGeometry x="893" y="1826" width="77" height="58" as="geometry" />
        </mxCell>
        <mxCell id="WznCXAJTclXVe1r9-bJw-30" value="" style="shape=partialRectangle;whiteSpace=wrap;html=1;top=0;bottom=0;fillColor=none;sketch=1;" vertex="1" parent="1">
          <mxGeometry x="1041" y="1825" width="77" height="58" as="geometry" />
        </mxCell>
        <mxCell id="WznCXAJTclXVe1r9-bJw-31" value="" style="shape=partialRectangle;whiteSpace=wrap;html=1;top=0;bottom=0;fillColor=none;sketch=1;" vertex="1" parent="1">
          <mxGeometry x="1189" y="1825" width="77" height="58" as="geometry" />
        </mxCell>
        <mxCell id="WznCXAJTclXVe1r9-bJw-32" value="&lt;font size=&quot;1&quot; color=&quot;#7ea6e0&quot;&gt;&lt;b style=&quot;font-size: 22px&quot;&gt;变量a&lt;/b&gt;&lt;/font&gt;" style="text;html=1;strokeColor=none;fillColor=none;align=center;verticalAlign=middle;whiteSpace=wrap;rounded=0;shadow=0;sketch=1;" vertex="1" parent="1">
          <mxGeometry x="669" y="1840" width="60" height="30" as="geometry" />
        </mxCell>
        <mxCell id="WznCXAJTclXVe1r9-bJw-33" value="&lt;font size=&quot;1&quot; color=&quot;#4d4d4d&quot;&gt;&lt;b style=&quot;font-size: 18px&quot;&gt;。。。&lt;/b&gt;&lt;/font&gt;" style="text;html=1;strokeColor=none;fillColor=none;align=center;verticalAlign=middle;whiteSpace=wrap;rounded=0;shadow=0;sketch=1;" vertex="1" parent="1">
          <mxGeometry x="981" y="1839" width="60" height="30" as="geometry" />
        </mxCell>
        <mxCell id="WznCXAJTclXVe1r9-bJw-34" value="&lt;b&gt;&lt;font style=&quot;font-size: 20px&quot; color=&quot;#ffff66&quot;&gt;&lt;br&gt;&lt;/font&gt;&lt;/b&gt;" style="rounded=1;whiteSpace=wrap;html=1;strokeWidth=2;fillWeight=4;hachureGap=8;hachureAngle=45;fillColor=#b1ddf0;sketch=1;strokeColor=#10739e;fillStyle=solid;" vertex="1" parent="1">
          <mxGeometry x="656" y="1908" width="612" height="64.5" as="geometry" />
        </mxCell>
        <mxCell id="WznCXAJTclXVe1r9-bJw-35" value="" style="shape=partialRectangle;whiteSpace=wrap;html=1;top=0;bottom=0;fillColor=none;shadow=0;sketch=1;" vertex="1" parent="1">
          <mxGeometry x="742" y="1912" width="77" height="58" as="geometry" />
        </mxCell>
        <mxCell id="WznCXAJTclXVe1r9-bJw-36" value="" style="shape=partialRectangle;whiteSpace=wrap;html=1;top=0;bottom=0;fillColor=none;sketch=1;" vertex="1" parent="1">
          <mxGeometry x="893" y="1912" width="77" height="58" as="geometry" />
        </mxCell>
        <mxCell id="WznCXAJTclXVe1r9-bJw-37" value="" style="shape=partialRectangle;whiteSpace=wrap;html=1;top=0;bottom=0;fillColor=none;sketch=1;" vertex="1" parent="1">
          <mxGeometry x="1041" y="1911" width="77" height="58" as="geometry" />
        </mxCell>
        <mxCell id="WznCXAJTclXVe1r9-bJw-38" value="" style="shape=partialRectangle;whiteSpace=wrap;html=1;top=0;bottom=0;fillColor=none;sketch=1;" vertex="1" parent="1">
          <mxGeometry x="1189" y="1911" width="77" height="58" as="geometry" />
        </mxCell>
        <mxCell id="WznCXAJTclXVe1r9-bJw-39" value="" style="edgeStyle=orthogonalEdgeStyle;orthogonalLoop=1;jettySize=auto;html=1;fontSize=22;fontColor=#7EA6E0;curved=1;strokeColor=#FF0080;" edge="1" parent="1" source="WznCXAJTclXVe1r9-bJw-41" target="WznCXAJTclXVe1r9-bJw-42">
          <mxGeometry relative="1" as="geometry" />
        </mxCell>
        <mxCell id="WznCXAJTclXVe1r9-bJw-40" value="&lt;b&gt;内存访问&lt;/b&gt;" style="edgeLabel;html=1;align=center;verticalAlign=middle;resizable=0;points=[];fontSize=17;fontColor=#4D4D4D;labelBackgroundColor=none;" vertex="1" connectable="0" parent="WznCXAJTclXVe1r9-bJw-39">
          <mxGeometry x="-0.351" y="-11" relative="1" as="geometry">
            <mxPoint x="12" y="11" as="offset" />
          </mxGeometry>
        </mxCell>
        <mxCell id="WznCXAJTclXVe1r9-bJw-41" value="P1" style="whiteSpace=wrap;html=1;fontSize=20;strokeWidth=2;fillColor=#66B2FF;sketch=1;fillWeight=-1;hachureGap=8;fillStyle=solid;strokeColor=#0e8088;" vertex="1" parent="1">
          <mxGeometry x="560" y="1726" width="58" height="58" as="geometry" />
        </mxCell>
        <mxCell id="WznCXAJTclXVe1r9-bJw-42" value="" style="shape=waypoint;sketch=1;size=6;pointerEvents=1;points=[];fillColor=#b0e3e6;resizable=0;rotatable=0;perimeter=centerPerimeter;snapToPoint=1;fontSize=20;strokeColor=#0e8088;strokeWidth=2;fillWeight=-1;hachureGap=8;fillStyle=solid;" vertex="1" parent="1">
          <mxGeometry x="674" y="1800" width="40" height="40" as="geometry" />
        </mxCell>
        <mxCell id="WznCXAJTclXVe1r9-bJw-43" value="&lt;font size=&quot;1&quot; color=&quot;#ea6b66&quot;&gt;&lt;b style=&quot;font-size: 22px&quot;&gt;变量b&lt;/b&gt;&lt;/font&gt;" style="text;html=1;strokeColor=none;fillColor=none;align=center;verticalAlign=middle;whiteSpace=wrap;rounded=0;shadow=0;sketch=1;" vertex="1" parent="1">
          <mxGeometry x="668" y="1925" width="60" height="30" as="geometry" />
        </mxCell>
        <mxCell id="WznCXAJTclXVe1r9-bJw-44" value="" style="edgeStyle=orthogonalEdgeStyle;curved=1;orthogonalLoop=1;jettySize=auto;html=1;fontSize=17;fontColor=#FF3333;strokeColor=#FF0080;entryX=1;entryY=0.75;entryDx=0;entryDy=0;" edge="1" parent="1" source="WznCXAJTclXVe1r9-bJw-45" target="WznCXAJTclXVe1r9-bJw-43">
          <mxGeometry relative="1" as="geometry">
            <Array as="points">
              <mxPoint x="748" y="2038" />
              <mxPoint x="748" y="1965" />
              <mxPoint x="728" y="1965" />
            </Array>
          </mxGeometry>
        </mxCell>
        <mxCell id="WznCXAJTclXVe1r9-bJw-45" value="P2" style="whiteSpace=wrap;html=1;fontSize=20;strokeWidth=2;fillColor=#FF9999;sketch=1;fillWeight=-1;hachureGap=8;fillStyle=solid;strokeColor=#0e8088;" vertex="1" parent="1">
          <mxGeometry x="564.5" y="1970" width="58" height="58" as="geometry" />
        </mxCell>
        <mxCell id="WznCXAJTclXVe1r9-bJw-46" value="&lt;font style=&quot;font-size: 19px&quot; color=&quot;#006600&quot;&gt;&lt;b&gt;t1&lt;/b&gt;&lt;/font&gt;" style="text;html=1;strokeColor=none;fillColor=none;align=center;verticalAlign=middle;whiteSpace=wrap;rounded=0;shadow=1;glass=0;sketch=1;fontSize=17;fontColor=#FF3333;strokeWidth=5;" vertex="1" parent="1">
          <mxGeometry x="1255" y="1843" width="60" height="30" as="geometry" />
        </mxCell>
        <mxCell id="WznCXAJTclXVe1r9-bJw-47" value="&lt;font style=&quot;font-size: 19px&quot; color=&quot;#006600&quot;&gt;&lt;b&gt;t2&lt;/b&gt;&lt;/font&gt;" style="text;html=1;strokeColor=none;fillColor=none;align=center;verticalAlign=middle;whiteSpace=wrap;rounded=0;shadow=1;glass=0;sketch=1;fontSize=17;fontColor=#FF3333;" vertex="1" parent="1">
          <mxGeometry x="1255" y="1922" width="60" height="30" as="geometry" />
        </mxCell>
        <mxCell id="WznCXAJTclXVe1r9-bJw-48" value="&lt;font size=&quot;1&quot; color=&quot;#4d4d4d&quot;&gt;&lt;b style=&quot;font-size: 18px&quot;&gt;。。。&lt;/b&gt;&lt;/font&gt;" style="text;html=1;strokeColor=none;fillColor=none;align=center;verticalAlign=middle;whiteSpace=wrap;rounded=0;shadow=0;sketch=1;" vertex="1" parent="1">
          <mxGeometry x="908" y="1839" width="60" height="30" as="geometry" />
        </mxCell>
        <mxCell id="WznCXAJTclXVe1r9-bJw-49" value="&lt;font size=&quot;1&quot; color=&quot;#4d4d4d&quot;&gt;&lt;b style=&quot;font-size: 18px&quot;&gt;填充位&lt;/b&gt;&lt;/font&gt;" style="text;html=1;strokeColor=none;fillColor=none;align=center;verticalAlign=middle;whiteSpace=wrap;rounded=0;shadow=0;sketch=1;" vertex="1" parent="1">
          <mxGeometry x="825" y="1843" width="60" height="30" as="geometry" />
        </mxCell>
        <mxCell id="WznCXAJTclXVe1r9-bJw-50" value="&lt;font size=&quot;1&quot; color=&quot;#4d4d4d&quot;&gt;&lt;b style=&quot;font-size: 18px&quot;&gt;填充位&lt;/b&gt;&lt;/font&gt;" style="text;html=1;strokeColor=none;fillColor=none;align=center;verticalAlign=middle;whiteSpace=wrap;rounded=0;shadow=0;sketch=1;" vertex="1" parent="1">
          <mxGeometry x="750.5" y="1843" width="60" height="30" as="geometry" />
        </mxCell>
        <mxCell id="WznCXAJTclXVe1r9-bJw-51" value="&lt;font size=&quot;1&quot; color=&quot;#4d4d4d&quot;&gt;&lt;b style=&quot;font-size: 18px&quot;&gt;填充位&lt;/b&gt;&lt;/font&gt;" style="text;html=1;strokeColor=none;fillColor=none;align=center;verticalAlign=middle;whiteSpace=wrap;rounded=0;shadow=0;sketch=1;" vertex="1" parent="1">
          <mxGeometry x="1196" y="1843" width="60" height="30" as="geometry" />
        </mxCell>
        <mxCell id="WznCXAJTclXVe1r9-bJw-52" value="&lt;font size=&quot;1&quot; color=&quot;#4d4d4d&quot;&gt;&lt;b style=&quot;font-size: 18px&quot;&gt;。。。&lt;/b&gt;&lt;/font&gt;" style="text;html=1;strokeColor=none;fillColor=none;align=center;verticalAlign=middle;whiteSpace=wrap;rounded=0;shadow=0;sketch=1;" vertex="1" parent="1">
          <mxGeometry x="1053" y="1840" width="60" height="30" as="geometry" />
        </mxCell>
        <mxCell id="WznCXAJTclXVe1r9-bJw-53" value="&lt;font size=&quot;1&quot; color=&quot;#4d4d4d&quot;&gt;&lt;b style=&quot;font-size: 18px&quot;&gt;。。。&lt;/b&gt;&lt;/font&gt;" style="text;html=1;strokeColor=none;fillColor=none;align=center;verticalAlign=middle;whiteSpace=wrap;rounded=0;shadow=0;sketch=1;" vertex="1" parent="1">
          <mxGeometry x="1131" y="1839" width="60" height="30" as="geometry" />
        </mxCell>
        <mxCell id="WznCXAJTclXVe1r9-bJw-54" value="&lt;font size=&quot;1&quot; color=&quot;#4d4d4d&quot;&gt;&lt;b style=&quot;font-size: 18px&quot;&gt;填充位&lt;/b&gt;&lt;/font&gt;" style="text;html=1;strokeColor=none;fillColor=none;align=center;verticalAlign=middle;whiteSpace=wrap;rounded=0;shadow=0;sketch=1;" vertex="1" parent="1">
          <mxGeometry x="1197.5" y="1926" width="60" height="30" as="geometry" />
        </mxCell>
        <mxCell id="WznCXAJTclXVe1r9-bJw-55" value="&lt;font size=&quot;1&quot; color=&quot;#4d4d4d&quot;&gt;&lt;b style=&quot;font-size: 18px&quot;&gt;。。。&lt;/b&gt;&lt;/font&gt;" style="text;html=1;strokeColor=none;fillColor=none;align=center;verticalAlign=middle;whiteSpace=wrap;rounded=0;shadow=0;sketch=1;" vertex="1" parent="1">
          <mxGeometry x="1131" y="1922" width="60" height="30" as="geometry" />
        </mxCell>
        <mxCell id="WznCXAJTclXVe1r9-bJw-56" value="&lt;font size=&quot;1&quot; color=&quot;#4d4d4d&quot;&gt;&lt;b style=&quot;font-size: 18px&quot;&gt;填充位&lt;/b&gt;&lt;/font&gt;" style="text;html=1;strokeColor=none;fillColor=none;align=center;verticalAlign=middle;whiteSpace=wrap;rounded=0;shadow=0;sketch=1;" vertex="1" parent="1">
          <mxGeometry x="750.5" y="1925.25" width="60" height="30" as="geometry" />
        </mxCell>
        <mxCell id="WznCXAJTclXVe1r9-bJw-57" value="&lt;font size=&quot;1&quot; color=&quot;#4d4d4d&quot;&gt;&lt;b style=&quot;font-size: 18px&quot;&gt;填充位&lt;/b&gt;&lt;/font&gt;" style="text;html=1;strokeColor=none;fillColor=none;align=center;verticalAlign=middle;whiteSpace=wrap;rounded=0;shadow=0;sketch=1;" vertex="1" parent="1">
          <mxGeometry x="825" y="1925.25" width="60" height="30" as="geometry" />
        </mxCell>
        <mxCell id="WznCXAJTclXVe1r9-bJw-58" value="&lt;font size=&quot;1&quot; color=&quot;#4d4d4d&quot;&gt;&lt;b style=&quot;font-size: 18px&quot;&gt;。。。&lt;/b&gt;&lt;/font&gt;" style="text;html=1;strokeColor=none;fillColor=none;align=center;verticalAlign=middle;whiteSpace=wrap;rounded=0;shadow=0;sketch=1;" vertex="1" parent="1">
          <mxGeometry x="905.5" y="1922.25" width="60" height="30" as="geometry" />
        </mxCell>
        <mxCell id="WznCXAJTclXVe1r9-bJw-59" value="&lt;font size=&quot;1&quot; color=&quot;#4d4d4d&quot;&gt;&lt;b style=&quot;font-size: 18px&quot;&gt;。。。&lt;/b&gt;&lt;/font&gt;" style="text;html=1;strokeColor=none;fillColor=none;align=center;verticalAlign=middle;whiteSpace=wrap;rounded=0;shadow=0;sketch=1;" vertex="1" parent="1">
          <mxGeometry x="978" y="1922.25" width="60" height="30" as="geometry" />
        </mxCell>
        <mxCell id="WznCXAJTclXVe1r9-bJw-60" value="&lt;font size=&quot;1&quot; color=&quot;#4d4d4d&quot;&gt;&lt;b style=&quot;font-size: 18px&quot;&gt;。。。&lt;/b&gt;&lt;/font&gt;" style="text;html=1;strokeColor=none;fillColor=none;align=center;verticalAlign=middle;whiteSpace=wrap;rounded=0;shadow=0;sketch=1;" vertex="1" parent="1">
          <mxGeometry x="1057" y="1922" width="60" height="30" as="geometry" />
        </mxCell>
        <mxCell id="WznCXAJTclXVe1r9-bJw-61" value="" style="endArrow=none;html=1;fontSize=18;fontColor=#4D4D4D;strokeColor=#000000;curved=1;sketch=1;" edge="1" parent="1">
          <mxGeometry width="50" height="50" relative="1" as="geometry">
            <mxPoint x="-238" y="1849" as="sourcePoint" />
            <mxPoint x="467" y="1851" as="targetPoint" />
          </mxGeometry>
        </mxCell>
        <mxCell id="WznCXAJTclXVe1r9-bJw-62" value="" style="endArrow=none;html=1;fontSize=18;fontColor=#4D4D4D;strokeColor=#000000;curved=1;sketch=1;" edge="1" parent="1">
          <mxGeometry width="50" height="50" relative="1" as="geometry">
            <mxPoint x="589" y="1895" as="sourcePoint" />
            <mxPoint x="1320" y="1897" as="targetPoint" />
          </mxGeometry>
        </mxCell>
        <mxCell id="WznCXAJTclXVe1r9-bJw-63" value="" style="shape=flexArrow;endArrow=classic;html=1;fontSize=18;fontColor=#4D4D4D;strokeColor=#00CC00;curved=1;shadow=1;sketch=1;rounded=0;" edge="1" parent="1">
          <mxGeometry width="50" height="50" relative="1" as="geometry">
            <mxPoint x="435.5" y="1827" as="sourcePoint" />
            <mxPoint x="435.5" y="1875" as="targetPoint" />
          </mxGeometry>
        </mxCell>
        <mxCell id="WznCXAJTclXVe1r9-bJw-64" value="" style="shape=flexArrow;endArrow=classic;html=1;fontSize=18;fontColor=#4D4D4D;strokeColor=#00CC00;curved=1;shadow=1;sketch=1;rounded=0;" edge="1" parent="1">
          <mxGeometry width="50" height="50" relative="1" as="geometry">
            <mxPoint x="1284.5" y="1874" as="sourcePoint" />
            <mxPoint x="1284.5" y="1922" as="targetPoint" />
          </mxGeometry>
        </mxCell>
        <mxCell id="WznCXAJTclXVe1r9-bJw-65" value="&lt;b&gt;内存访问&lt;/b&gt;" style="edgeLabel;html=1;align=center;verticalAlign=middle;resizable=0;points=[];fontSize=17;fontColor=#4D4D4D;labelBackgroundColor=none;" vertex="1" connectable="0" parent="1">
          <mxGeometry x="718" y="2018" as="geometry" />
        </mxCell>
        <mxCell id="WznCXAJTclXVe1r9-bJw-66" value="&lt;b&gt;内存访问&lt;/b&gt;" style="edgeLabel;html=1;align=center;verticalAlign=middle;resizable=0;points=[];fontSize=17;fontColor=#4D4D4D;labelBackgroundColor=none;" vertex="1" connectable="0" parent="1">
          <mxGeometry x="269" y="1957" as="geometry" />
        </mxCell>
      </root>
    </mxGraphModel>
  </diagram>
</mxfile>
